<?xml version="1.0" standalone="no"?>
<!DOCTYPE svg PUBLIC "-//W3C//DTD SVG 20010904//EN"
 "http://www.w3.org/TR/2001/REC-SVG-20010904/DTD/svg10.dtd">
<svg version="1.0" xmlns="http://www.w3.org/2000/svg"
 width="700.000000pt" height="700.000000pt" viewBox="0 0 700.000000 700.000000"
 preserveAspectRatio="xMidYMid meet">
<metadata>
Created by potrace 1.14, written by Peter Selinger 2001-2017
</metadata>
<g transform="translate(0.000000,700.000000) scale(0.100000,-0.100000)"
fill="#000000" stroke="none">
<path d="M2900 6000 c-221 -39 -415 -195 -504 -406 -14 -34 -28 -77 -31 -95
-3 -18 -9 -37 -12 -42 -3 -6 -8 -78 -9 -161 -2 -83 -3 -155 -3 -161 -1 -6
-138 -10 -389 -11 -431 -1 -452 -4 -587 -70 -163 -80 -299 -244 -345 -415 -7
-24 -15 -53 -18 -64 -4 -11 -8 -684 -9 -1495 -2 -1268 0 -1485 12 -1544 58
-269 259 -473 521 -530 60 -12 324 -14 1994 -13 1059 2 1938 6 1954 10 73 20
154 52 205 83 126 75 241 216 286 348 46 135 44 83 45 1623 0 1414 -1 1455
-20 1537 -60 259 -239 444 -494 513 -51 14 -122 16 -448 17 l-388 1 -1 30 c-6
303 -9 326 -56 439 -81 195 -256 346 -459 395 -73 18 -120 19 -639 19 -308 0
-580 -4 -605 -8z m1222 -373 c68 -33 121 -90 156 -166 24 -52 26 -67 27 -196
l0 -139 -798 -1 c-440 0 -803 3 -808 6 -6 3 -8 61 -6 141 3 120 7 141 31 194
42 91 110 152 198 179 30 8 189 11 592 11 l551 -1 57 -28z m1349 -883 c73 -35
124 -88 161 -170 21 -46 23 -64 25 -316 l3 -268 -2161 0 -2160 0 3 268 c3 264
4 268 30 323 43 94 112 155 207 183 28 8 546 11 1932 11 l1894 0 66 -31z m186
-2126 l-2 -1023 -29 -62 c-33 -72 -94 -134 -164 -166 l-47 -22 -1915 0 -1915
0 -46 21 c-56 26 -114 76 -145 126 -53 84 -52 69 -52 1147 l-1 1001 2159 0
2159 0 -2 -1022z"/>
</g>
</svg>
