<svg xmlns="http://www.w3.org/2000/svg" width="120" height="120" fill="none"><path fill="#fff" d="M0 57.6C0 30.447 0 16.87 8.435 8.435 16.871 0 30.447 0 57.6 0h4.8c27.153 0 40.729 0 49.165 8.435C120 16.871 120 30.447 120 57.6v4.8c0 27.153 0 40.729-8.435 49.165C103.129 120 89.553 120 62.4 120h-4.8c-27.153 0-40.73 0-49.165-8.435C0 103.129 0 89.553 0 62.4v-4.8Z"/><path stroke="#008163" stroke-width="8" d="M23 55.432v34.46C23 94.37 26.535 98 30.895 98h59.21C94.465 98 98 94.37 98 89.892v-34.46m-75 0V45.297c0-4.478 3.535-8.108 7.895-8.108H44.71M23 55.432h75m0 0V45.297c0-4.478-3.535-8.108-7.895-8.108H76.29m-31.578 0v-6.08c0-4.479 3.534-8.109 7.894-8.109h15.79c4.36 0 7.895 3.63 7.895 8.108v6.081m-31.58 0h31.58"/></svg>