<svg width="120" height="120" viewBox="0 0 120 120" fill="none" xmlns="http://www.w3.org/2000/svg">
<path d="M0 57.6C0 30.4471 0 16.8706 8.43532 8.43532C16.8706 0 30.4471 0 57.6 0L62.4 0C89.5529 0 103.129 0 111.565 8.43532C120 16.8706 120 30.4471 120 57.6V62.4C120 89.5529 120 103.129 111.565 111.565C103.129 120 89.5529 120 62.4 120H57.6C30.4471 120 16.8706 120 8.43532 111.565C0 103.129 0 89.5529 0 62.4L0 57.6Z" fill="white"/>
<path d="M23 55.4324V89.8919C23 94.3699 26.5346 98 30.8947 98H90.1053C94.4654 98 98 94.3699 98 89.8919V55.4324M23 55.4324V45.2973C23 40.8193 26.5346 37.1892 30.8947 37.1892H44.7105M23 55.4324H98M98 55.4324V45.2973C98 40.8193 94.4654 37.1892 90.1053 37.1892H76.2895M44.7105 37.1892V31.1081C44.7105 26.6301 48.2451 23 52.6053 23H68.3947C72.7549 23 76.2895 26.6301 76.2895 31.1081V37.1892M44.7105 37.1892H76.2895" stroke="#008163" stroke-width="8"/>
</svg>
