<svg width="120" height="120" viewBox="0 0 120 120" fill="none" xmlns="http://www.w3.org/2000/svg">
<path d="M20 54.5946V91.3513C20 96.1279 23.7702 100 28.4211 100H91.5789C96.2298 100 100 96.1279 100 91.3513V54.5946M20 54.5946V43.7838C20 39.0073 23.7702 35.1351 28.4211 35.1351H43.1579M20 54.5946H100M100 54.5946V43.7838C100 39.0073 96.2298 35.1351 91.5789 35.1351H76.8421M43.1579 35.1351V28.6486C43.1579 23.8721 46.9281 20 51.5789 20H68.4211C73.0719 20 76.8421 23.8721 76.8421 28.6486V35.1351M43.1579 35.1351H76.8421" stroke="white" stroke-width="6"/>
</svg>
